<?xml version="1.0" standalone="no"?>
<!DOCTYPE svg PUBLIC "-//W3C//DTD SVG 20010904//EN"
 "http://www.w3.org/TR/2001/REC-SVG-20010904/DTD/svg10.dtd">
<svg version="1.0" xmlns="http://www.w3.org/2000/svg"
 width="500.000000pt" height="500.000000pt" viewBox="0 0 500.000000 500.000000"
 preserveAspectRatio="xMidYMid meet">
<metadata>
Created by potrace 1.14, written by Peter Selinger 2001-2017
</metadata>
<g transform="translate(0.000000,500.000000) scale(0.100000,-0.100000)"
fill="#000000" stroke="none">
<path d="M0 2500 l0 -2500 2500 0 2500 0 0 2500 0 2500 -2500 0 -2500 0 0
-2500z m2752 2165 c420 -63 803 -272 1072 -585 57 -66 66 -89 44 -107 -7 -6
-92 -13 -188 -17 -234 -9 -284 -20 -128 -29 125 -7 396 -50 428 -67 22 -12 95
-142 141 -251 175 -417 185 -893 28 -1314 l-34 -90 -103 -3 c-99 -3 -103 -2
-128 23 -25 25 -26 31 -20 91 7 71 47 192 79 239 11 17 53 62 93 100 61 58 74
76 74 101 0 37 -21 58 -49 49 -11 -3 -54 -48 -96 -100 -41 -52 -82 -95 -90
-95 -32 0 -9 133 37 224 11 21 39 60 63 85 97 104 168 249 146 297 -15 33 -60
32 -102 -3 -33 -28 -105 -165 -89 -171 5 -2 20 4 35 14 14 9 28 14 31 11 12
-12 -29 -69 -61 -84 -32 -15 -36 -15 -54 1 -17 16 -19 35 -22 221 -4 188 -6
206 -25 232 -40 53 -92 44 -124 -23 -31 -62 -31 -172 -1 -269 14 -45 23 -101
24 -157 1 -49 3 -88 5 -88 2 0 12 5 23 10 31 17 24 -16 -10 -51 -36 -35 -54
-36 -86 -5 -27 27 -40 68 -55 176 -6 41 -15 79 -20 84 -16 16 -56 -10 -75 -51
-20 -41 -31 -137 -21 -177 9 -38 59 -90 134 -139 80 -53 98 -72 105 -112 6
-33 -15 -170 -37 -250 l-14 -50 -2 55 -1 55 -24 -45 c-13 -25 -25 -38 -25 -30
-1 8 -7 65 -14 125 l-14 110 -1 -115 c-2 -106 -3 -113 -15 -85 -17 37 -52 76
-89 100 l-27 18 24 -49 c14 -27 28 -62 32 -77 l7 -29 -60 30 c-33 17 -77 33
-99 37 l-39 7 30 -20 c61 -39 127 -123 155 -197 l10 -25 -380 0 c-363 0 -380
1 -380 18 0 11 -9 27 -20 37 l-20 18 20 35 c11 19 51 76 89 126 87 117 93 129
85 163 -13 49 -75 174 -90 180 -10 4 -3 13 25 33 44 32 72 68 95 124 9 21 16
40 16 42 0 1 -14 -1 -31 -6 -30 -9 -29 -8 16 32 52 46 123 145 141 197 l12 35
21 -41 c20 -40 132 -149 172 -167 28 -13 65 7 71 39 11 55 -34 177 -92 250
-16 20 -34 53 -41 73 -15 47 -57 104 -71 96 -5 -4 -8 -19 -6 -34 4 -27 3 -28
-52 -32 -43 -3 -80 -16 -159 -57 -165 -84 -205 -91 -569 -101 -262 -8 -325
-12 -390 -29 -42 -11 -108 -28 -147 -36 -131 -29 -190 -82 -262 -231 -46 -95
-82 -250 -82 -354 l-1 -45 76 115 c71 110 104 184 104 238 0 43 52 186 74 204
29 24 55 24 33 0 -30 -33 -39 -78 -47 -227 -8 -172 -19 -205 -78 -233 -31 -14
-45 -32 -84 -108 -25 -50 -73 -132 -107 -183 -48 -74 -61 -101 -61 -132 l0
-39 -263 0 -263 0 -36 98 c-34 93 -79 260 -93 349 -10 66 10 79 131 88 157 10
165 21 25 28 -154 9 -166 15 -174 92 -7 71 8 268 30 393 20 118 28 126 174
200 145 73 187 80 333 57 98 -15 150 -17 309 -12 244 9 306 20 157 30 -154 11
-296 33 -460 73 -83 20 -185 38 -238 41 -142 9 -151 32 -67 171 218 363 542
635 912 766 216 77 370 104 596 105 103 1 206 -5 269 -14z m-546 -1830 c80
-36 181 -54 341 -62 l134 -6 -6 -76 c-10 -117 -45 -433 -51 -463 l-6 -28 -212
0 -212 0 -64 103 c-35 56 -79 133 -98 171 l-35 69 18 56 c9 31 37 93 61 138
24 46 44 85 44 88 0 3 -15 15 -32 26 l-33 21 46 -6 c26 -3 73 -17 105 -31z
m-324 -165 c-14 -115 -10 -131 56 -213 50 -62 132 -209 132 -236 0 -21 -3 -21
-273 -21 l-273 0 -13 50 c-12 45 -11 54 8 92 36 75 119 175 232 281 84 79 110
110 115 135 5 24 10 30 17 23 8 -8 7 -40 -1 -111z m948 -40 c11 -11 20 -30 20
-43 0 -28 -46 -99 -94 -146 l-34 -33 8 33 c52 218 58 231 100 189z m-552 -750
c46 -28 72 -76 72 -132 0 -72 -25 -119 -78 -147 -28 -15 -39 -9 -17 9 12 10
15 37 15 129 0 118 -6 142 -40 154 -13 5 -13 6 0 6 8 1 30 -8 48 -19z m-858
-62 c1 -40 2 -108 3 -151 l2 -77 -35 0 -35 0 3 150 3 150 30 0 29 0 0 -72z
m118 52 c15 -15 22 -33 22 -60 0 -45 -23 -66 -81 -75 -27 -4 -29 -3 -13 4 34
15 41 101 11 139 -17 21 37 14 61 -8z m232 -45 l0 -65 45 0 45 0 0 65 0 65 34
0 35 0 3 -150 3 -150 -37 0 -38 0 0 80 0 80 -45 0 -45 0 0 -74 c0 -50 4 -76
13 -79 6 -3 -9 -6 -35 -6 l-48 -1 0 150 0 150 35 0 35 0 0 -65z m393 43 c-4
-13 -8 -74 -8 -136 0 -101 2 -115 19 -128 16 -12 17 -14 4 -14 -24 0 -73 45
-92 84 -31 66 -14 153 39 194 36 28 49 28 38 0z m397 -122 c0 -106 3 -146 13
-149 6 -3 -9 -6 -35 -6 l-48 -1 0 150 0 150 35 0 35 0 0 -144z m113 122 c9
-31 4 -32 -23 -3 -23 24 -23 25 -3 25 13 0 23 -8 26 -22z m282 -73 c65 -93 66
-95 63 -152 l-3 -58 -75 109 c-41 60 -83 118 -92 128 -10 10 -18 21 -18 25 0
3 -7 15 -17 25 -15 17 -14 18 30 18 l46 0 66 -95z m75 85 c0 -5 -2 -10 -4 -10
-3 0 -8 5 -11 10 -3 6 -1 10 4 10 6 0 11 -4 11 -10z m230 -140 l0 -150 -37 0
-38 0 3 150 3 150 35 0 34 0 0 -150z m262 97 c16 -28 52 -96 82 -149 l54 -98
-46 0 c-25 0 -42 3 -39 6 4 4 -8 34 -25 66 l-31 59 -25 -28 -24 -28 22 33 22
32 -41 75 c-23 41 -41 77 -41 80 0 3 15 5 33 5 29 0 35 -6 59 -53z m118 49 c0
-2 -7 -9 -15 -16 -12 -10 -15 -10 -15 4 0 9 7 16 15 16 8 0 15 -2 15 -4z m-50
-66 c-12 -16 -24 -30 -26 -30 -3 0 4 14 16 30 12 17 24 30 26 30 3 0 -4 -13
-16 -30z m-960 -72 c0 -29 -1 -30 -14 -13 -10 14 -11 22 -2 31 15 18 16 18 16
-18z m60 -113 l0 -45 -47 1 c-28 1 -38 4 -23 6 34 7 48 19 55 54 9 42 15 36
15 -16z m754 -16 c-3 -6 0 -15 7 -20 10 -6 3 -9 -20 -9 l-33 0 23 20 c28 22
33 24 23 9z m-594 -19 c12 -8 9 -10 -13 -10 -16 0 -26 4 -22 10 8 12 16 12 35
0z m-1180 -341 l0 -149 -37 0 -38 0 0 153 0 152 38 -4 37 -3 0 -149z m620 148
c-34 -17 -39 -60 -8 -81 12 -9 29 -16 36 -16 31 0 81 -33 93 -61 21 -52 -20
-139 -65 -139 -6 0 0 7 12 16 30 21 29 94 -2 94 -7 0 -36 7 -65 16 -44 13 -55
21 -67 50 -12 29 -12 39 0 68 15 35 50 66 76 66 8 0 4 -6 -10 -13z m110 -24
c-1 -36 -2 -37 -15 -18 -8 11 -20 26 -26 34 -10 11 -8 12 10 6 12 -4 21 -2 21
4 0 6 2 11 5 11 3 0 5 -17 5 -37z m230 -124 l0 -149 -37 0 -38 0 0 153 0 152
38 -4 37 -3 0 -149z m620 148 c-41 -21 -51 -52 -48 -160 3 -90 5 -101 27 -118
32 -26 7 -24 -37 3 -71 43 -91 158 -40 223 26 34 76 65 103 65 17 0 17 -2 -5
-13z m57 7 c-3 -3 -12 -4 -19 -1 -8 3 -5 6 6 6 11 1 17 -2 13 -5z m-1520 -26
c40 -37 26 -100 -24 -113 l-28 -7 31 -13 c33 -13 44 -37 44 -92 0 -25 4 -33
18 -33 14 0 15 -2 2 -10 -21 -13 -64 -12 -78 2 -7 7 -12 30 -12 53 0 56 -10
85 -27 85 -11 0 -8 6 8 18 18 15 22 28 21 62 -1 24 -7 49 -13 56 -20 24 32 17
58 -8z m273 -128 l0 -150 -37 0 -38 0 3 150 3 150 35 0 34 0 0 -150z m867 52
c62 -91 64 -95 61 -150 l-3 -57 -85 123 c-46 67 -88 122 -92 122 -4 0 -8 5 -8
12 0 6 -8 20 -17 30 -17 19 -16 19 32 16 l49 -3 63 -93z m73 88 c0 -5 -2 -10
-4 -10 -3 0 -8 5 -11 10 -3 6 -1 10 4 10 6 0 11 -4 11 -10z m379 -30 c0 -19
-3 -28 -6 -20 -3 8 -14 24 -24 35 -17 19 -17 20 7 20 21 0 24 -4 23 -35z m23
-179 c-5 -36 -36 -67 -77 -77 -28 -7 -29 -7 -12 10 14 15 23 57 18 89 0 4 16
7 37 7 37 0 38 -1 34 -29z m-1139 -64 l22 -18 -22 10 c-12 6 -29 8 -37 5 -13
-5 -16 2 -16 37 l0 44 16 -30 c8 -16 25 -38 37 -48z m557 -7 c12 -8 11 -10 -7
-10 -13 0 -23 5 -23 10 0 13 11 13 30 0z m-697 -372 c21 -33 37 -68 35 -77 -2
-10 -21 12 -51 57 -52 80 -53 82 -34 82 6 -1 29 -28 50 -62z m233 34 c-4 -3
-14 2 -24 12 -16 18 -16 18 6 6 13 -6 21 -14 18 -18z m88 13 c-4 -8 -8 -15
-10 -15 -2 0 -4 7 -4 15 0 8 4 15 10 15 5 0 7 -7 4 -15z m56 -60 c0 -53 -4
-75 -12 -75 -10 0 -12 20 -10 75 5 97 22 98 22 0z m50 47 c0 -15 -2 -15 -10
-2 -13 20 -13 33 0 25 6 -3 10 -14 10 -23z m100 -35 c0 -36 5 -68 12 -75 7 -7
8 -12 2 -12 -23 0 -34 27 -34 87 0 35 4 63 10 63 6 0 10 -28 10 -63z m391 31
c0 -18 1 -52 2 -76 1 -28 -2 -42 -10 -42 -9 0 -13 22 -13 75 0 43 4 75 10 75
6 0 10 -15 11 -32z m204 2 c9 -16 19 -30 23 -30 4 0 7 -20 7 -45 0 -29 -4 -45
-12 -45 -8 0 -13 14 -13 35 0 20 -9 54 -20 75 -11 22 -16 40 -10 40 5 0 16
-13 25 -30z m-1542 2 c-3 -14 5 -22 36 -34 33 -13 41 -22 41 -41 0 -13 -8 -31
-17 -38 -15 -11 -16 -11 -5 1 21 24 13 40 -28 56 -30 12 -40 22 -40 38 0 19 7
36 16 36 1 0 0 -8 -3 -18z m231 -37 c9 -30 19 -61 22 -70 4 -10 0 -15 -10 -15
-9 0 -15 3 -14 8 1 4 -5 31 -15 60 -15 45 -16 72 -2 72 2 0 11 -25 19 -55z
m338 0 c-2 -33 1 -63 8 -73 7 -9 1 -4 -14 11 -30 32 -33 62 -10 95 8 12 16 22
17 22 1 0 0 -25 -1 -55z m622 0 c9 -30 19 -61 22 -70 4 -10 0 -15 -10 -15 -9
0 -15 3 -14 8 1 4 -5 31 -15 60 -15 45 -16 72 -2 72 2 0 11 -25 19 -55z m213
39 c3 -9 1 -25 -5 -35 -6 -10 -8 -20 -3 -23 15 -10 19 -66 4 -66 -7 0 -13 10
-13 23 0 12 -4 29 -10 37 -5 9 -5 19 2 27 6 7 8 22 5 33 -6 24 11 27 20 4z
m-1414 -99 c4 -8 2 -17 -3 -20 -6 -4 -10 3 -10 14 0 25 6 27 13 6z m667 -3 c0
-10 -6 -19 -14 -19 -11 0 -12 4 -3 19 7 10 13 18 14 18 2 0 3 -8 3 -18z"/>
<path d="M2855 4401 c-4 -12 -20 -31 -37 -41 -29 -17 -29 -18 -8 -25 12 -4 29
-20 39 -36 l18 -29 13 24 c7 14 26 31 42 39 l30 14 -25 7 c-14 3 -34 20 -45
37 -19 31 -20 31 -27 10z"/>
<path d="M1651 3934 c-6 -13 -23 -29 -38 -35 -27 -11 -27 -11 -7 -19 12 -5 31
-21 43 -36 18 -23 24 -26 31 -14 6 8 10 18 10 21 0 4 15 14 33 23 17 8 26 16
18 16 -7 0 -28 15 -46 34 l-32 35 -12 -25z"/>
<path d="M3176 3831 c-17 -19 -17 -21 1 -40 l19 -20 18 21 c17 20 17 21 -1 40
-19 18 -20 18 -37 -1z"/>
<path d="M1382 3285 c-7 -14 -24 -30 -39 -36 -20 -8 -24 -13 -13 -16 24 -9 60
-45 60 -62 0 -9 12 -1 31 22 17 20 38 37 47 37 10 0 4 8 -17 21 -18 11 -35 29
-38 40 -7 26 -18 24 -31 -6z"/>
</g>
</svg>
